<?xml version="1.0" encoding="UTF-8"?>
<svg id="Layer_3" data-name="Layer 3" xmlns="http://www.w3.org/2000/svg" version="1.1" xmlns:xlink="http://www.w3.org/1999/xlink" viewBox="0 0 1080 500">
  <defs>
    <linearGradient id="linear-gradient" x1="65.598" y1="307.809" x2="1252.417" y2="29.317" gradientUnits="userSpaceOnUse">
      <stop offset="0" stop-color="#b615ff"/>
      <stop offset="1" stop-color="#00edff"/>
    </linearGradient>
    <linearGradient id="linear-gradient-2" x1="98.675" y1="317.006" x2="1026.246" y2="621.043" gradientTransform="translate(0 -35.979)" xlink:href="#linear-gradient"/>
  </defs>
  <path d="M407.774,29.073c93.154,0,140.655,48.735,140.655,148.673v160.394c0,6.787-3.085,11.721-10.489,13.572-40.096,11.722-91.299,16.656-129.548,16.656-104.257,0-151.758-39.482-151.758-109.191,0-61.69,46.268-93.769,133.868-93.769,17.89,0,32.078,1.234,43.801,3.085v-1.234c0-23.443-7.404-40.715-43.184-40.715-23.441,0-53.672,6.169-69.71,14.188-6.787,3.702-12.956,2.469-16.658-4.318l-28.376-59.84c-4.32-6.785-4.32-11.721,0-14.805,28.993-17.272,75.879-32.695,131.398-32.695ZM407.774,280.151c8.636,0,19.742-1.234,26.529-2.467v-41.949c-8.639-1.851-17.893-3.085-27.143-3.085-22.827,0-34.548,8.019-34.548,22.208,0,16.039,12.338,25.292,35.162,25.292ZM892.562,368.368c-43.801,0-91.302-13.572-130.783-40.715-6.787-4.318-7.404-10.487-3.702-17.274l34.548-57.988c4.317-7.403,9.868-8.638,16.655-4.318,26.526,16.656,53.669,24.675,83.283,24.675,20.974,0,32.078-5.552,32.078-15.423,0-8.019-11.103-13.572-32.695-16.656-85.133-12.954-125.232-49.351-125.232-106.107,0-66.625,48.118-105.489,141.272-105.489,38.247,0,74.644,8.019,113.508,27.759,7.404,3.702,8.636,9.871,4.32,17.274l-35.165,56.138c-4.317,6.787-9.868,8.02-16.655,4.318-19.742-9.87-43.801-15.423-66.625-15.423-17.275,0-27.143,2.469-27.143,13.573,0,9.87,5.552,13.572,43.184,19.123,76.493,12.338,116.593,48.118,116.593,103.64,0,74.645-46.883,112.892-147.438,112.892ZM52.337,359.732c-8.019,0-12.337-4.318-12.337-12.338V70.406c0-6.787,2.467-11.105,8.636-14.807,35.778-17.89,75.877-26.526,119.061-26.526,17.272,0,35.78,2.467,56.754,6.169,7.404,1.85,11.106,6.169,11.106,13.572v68.476c0,8.019-4.937,12.338-12.956,11.103-9.254-1.234-19.125-1.85-28.379-1.85-15.423,0-28.376,1.85-40.099,6.785v214.065c0,8.02-4.317,12.338-12.338,12.338H52.337ZM635.857,112.689c13.78-9.519,17.579-33.57,36.555-33.533,9.498.085,20.326,6.779,28.02,4.734,10.17-3.054,10.035-17.995,8.983-26.895-.921-26.176-30.126-25.989-51.679-26.893-15.509-.195-31.951-.337-46.896,4.698-8.877,3.075-14.46,8.314-15.944,17.086-2.35,14.295-2.311,34.182-1.609,48.619-.991,32.112,22.789,27.034,42.57,12.184ZM664.282,95.421c-2.557,2.07-4.77,4.727-6.831,7.312-6.857,8.952-13.506,18.041-23.613,25.05-4.382,3.176-9.262,6.127-13.998,8.457-9.026,4.778-18.728,6.498-22.391,16.443-1.295,3.221-2.007,8.225-2.012,11.251-.048,19.568.019,160.048-.007,180.91.02,3.619.169,6.017,3.05,9.901,2.253,2.843,5.585,4.746,9.159,5.14,11.383.45,22.367.094,34.927.2,19.273,0,41.261,0,49.853,0,3.259.038,6.513-.034,9.516-1.57,4.74-2.39,7.931-7.728,7.635-12.945-.003-62.38.003-167.124,0-227.505.146-4.36-1.278-9.247-3.852-13.065-3.792-5.682-11.097-8.035-18.512-10.442-7.4-2.344-16.234-4.912-22.776.744l-.147.117Z" fill="url(#linear-gradient)" stroke-width="0"/>
  <path d="M1040,470.927l-1000-.091v-90.396l1000,.091v90.396ZM95.114,449.139v-14.297l12.914-27.695-11.184.059-7.149,17.477-6.803-17.429-11.761.009,12.914,27.649v14.297l11.069-.069ZM147.114,428.207c0-13.029-7.033-21.946-19.832-22.028-12.798.033-19.947,8.978-19.947,22.007,0,12.914,7.149,21.841,19.947,21.923,12.798-.033,19.832-8.873,19.832-21.902ZM127.167,440.528c-5.65-.033-8.417-4.195-8.417-12.382,0-8.417,2.767-12.556,8.417-12.638,5.534.023,8.417,4.195,8.417,12.612,0,8.302-2.767,12.441-8.417,12.408ZM171.904,449.976c2.652.001,5.073-.363,7.379-1.084,7.264-2.478,11.415-8.571,11.415-18.487v-23.406l-11.069-.046v23.982c0,6.342-2.537,9.463-7.725,9.471-5.073.017-7.725-3.212-7.725-9.439v-23.982l-10.954-.036v23.406c0,6.572,1.73,11.451,5.189,14.751,3.459,3.3,7.956,4.962,13.49,4.87ZM216.294,407.048l-17.526-.034v41.969l10.838.026v-13.836l5.765.043,5.534,13.859,12.568-.053-7.149-15.96c4.266-2.163,6.457-6.238,6.457-12.118,0-10.262-5.996-13.899-16.488-13.895ZM209.607,416.264l7.61-.026c2.883.022,4.381,1.536,4.381,4.765s-1.499,4.827-4.381,4.805l-7.61.026v-9.57ZM269.217,407.066l-17.641-.044v41.969l10.954.036v-13.144l5.765.043c11.184-.059,16.834-4.869,16.834-14.439,0-9.8-5.88-14.35-15.911-14.421ZM273.599,421.401c0,3.69-1.384,5.183-4.958,5.216l-6.111.042v-10.262l5.996-.052c3.69-.023,5.073,1.366,5.073,5.056ZM324.215,407.151l-31.823-.017v41.969l32.284.057v-9.224l-21.215-.011v-7.379l19.37-.035v-9.339l-19.37.035v-6.687l20.869-.019v-9.339l-.115-.01ZM350.619,407.04l-17.526-.034v41.969l10.838.026v-13.836l5.765.043,5.534,13.859,12.568-.053-7.149-15.96c4.266-2.163,6.457-6.238,6.457-12.118,0-10.262-5.996-13.784-16.488-13.895ZM343.932,416.37l7.61-.026c2.883.022,4.381,1.536,4.381,4.765s-1.499,4.827-4.381,4.805l-7.61.026v-9.57ZM404.464,436.655c0-10.262-8.302-11.91-16.373-14.115-1.96-.517-5.189-1.146-5.189-3.682,0-2.191,1.845-3.298,5.534-3.321,3.92-.003,8.071.937,12.222,2.914l3.459-8.23c-4.497-2.699-9.685-4.076-15.566-4.129-4.958.027-8.993,1.058-12.222,3.312-3.228,2.254-4.843,5.572-4.843,10.184,0,8.417,5.88,11.468,12.683,13.101,2.883.829,8.878.892,8.878,4.812,0,2.075-1.96,3.057-5.88,3.06-4.612-.058-10.031-1.8-12.683-3.646l-3.69,8.094c3.69,2.859,10.262,4.933,16.719,4.922,9.57.146,16.949-3.936,16.949-13.275ZM449.316,428.127c0-13.029-7.033-21.946-19.832-22.028-12.798-.082-19.947,8.978-19.947,22.007,0,12.914,7.149,21.841,19.947,21.923,12.798-.033,19.832-8.873,19.832-21.902ZM429.369,440.564c-5.65-.033-8.417-4.195-8.417-12.382,0-8.417,2.767-12.556,8.417-12.638,5.534.023,8.417,4.195,8.417,12.612,0,8.302-2.767,12.441-8.417,12.408ZM482.638,407.06v25.481l-15.681-25.47-10.954-.036v41.969l10.492-.004v-25.597l15.911,25.605,10.723.016v-41.969l-10.492.005ZM527.259,449.128l12.107.021-14.297-41.952-12.452-.052-14.297,41.987,11.645-.019,2.421-8.09,12.337.042,2.537,8.062ZM514.346,432.202l4.381-14.375,4.266,14.44-8.647-.065ZM555.739,439.859v-32.745l-10.954-.036v41.969l30.093-.019v-9.224l-19.14.055ZM618.462,449.036l12.107.021-14.297-41.952-12.452-.052-14.297,41.987,11.645-.019,2.421-8.09,12.337.042,2.537,8.062ZM605.548,432.225l4.381-14.375,4.266,14.44-8.648-.065ZM635.988,449.07l10.954.036v-41.969l-10.954-.036v41.969ZM692.485,449.055l12.107.021-14.297-41.952-12.452-.052-14.297,41.987,11.645-.019,2.421-8.09,12.337.042,2.537,8.062ZM679.571,432.245l4.381-14.375,4.266,14.44-8.648-.065ZM741.257,436.719c0-10.262-8.302-11.91-16.373-14.115-1.96-.517-5.189-1.146-5.189-3.682,0-2.191,1.845-3.298,5.534-3.321,3.92-.003,8.071.937,12.222,2.914l3.459-8.23c-4.497-2.699-9.685-4.076-15.566-4.129-4.958.027-8.993,1.058-12.222,3.312s-4.843,5.572-4.843,10.184c0,8.417,5.88,11.468,12.683,13.101,2.883.829,8.878.892,8.878,4.812,0,2.075-1.96,3.057-5.88,3.06-4.612-.058-10.031-1.8-12.683-3.646l-3.69,8.094c3.69,2.859,10.262,4.933,16.719,4.922,9.57.03,16.949-4.051,16.949-13.276ZM779.421,436.714c0-10.262-8.302-11.91-16.373-14.115-1.96-.517-5.189-1.146-5.189-3.682,0-2.191,1.845-3.298,5.534-3.321,3.92-.003,8.071.937,12.222,2.914l3.459-8.23c-4.497-2.699-9.685-4.076-15.566-4.129-4.958.027-8.993,1.058-12.222,3.312s-4.843,5.572-4.843,10.184c0,8.417,5.88,11.468,12.683,13.101,2.883.829,8.878.892,8.878,4.812,0,2.075-1.96,3.057-5.88,3.06-4.612-.058-10.031-1.8-12.683-3.646l-3.69,8.094c3.69,2.859,10.262,4.933,16.719,4.922,9.455.02,16.949-4.051,16.949-13.276ZM786.224,449.07l10.954.036v-41.969l-10.954-.036v41.969ZM837.302,436.705c0-10.262-8.302-11.91-16.373-14.115-1.96-.517-5.189-1.146-5.189-3.682,0-2.191,1.845-3.298,5.534-3.321,3.92-.003,8.071.937,12.222,2.914l3.459-8.23c-4.497-2.699-9.685-4.076-15.566-4.129-4.958.027-8.993,1.058-12.222,3.312s-4.843,5.572-4.843,10.184c0,8.417,5.88,11.468,12.683,13.101,2.883.829,8.878.892,8.878,4.812,0,2.075-1.96,3.057-5.88,3.06-4.612-.058-10.031-1.8-12.683-3.646l-3.69,8.094c3.69,2.859,10.262,4.933,16.719,4.922,9.57.03,16.949-4.051,16.949-13.276ZM875.928,407.108l-34.936.057v9.224l11.991.011v32.745l10.954.036v-32.745l11.991.011v-9.339h0ZM903.254,449.047l12.107.021-14.297-41.952-12.452-.052-14.297,41.987,11.645-.019,2.421-8.09,12.337.042,2.537,8.062ZM890.34,432.237l4.381-14.375,4.266,14.44-8.648-.065ZM947.414,407.137v25.481l-15.681-25.47-10.954-.036v41.969l10.492-.004v-25.597l15.911,25.605,10.723.016v-41.969l-10.492.005ZM998.377,407.098l-34.936.057v9.224l11.991.011v32.745l10.954.036v-32.745l11.991.011v-9.339h0Z" fill="url(#linear-gradient-2)" stroke-width="0"/>
</svg>