<?xml version="1.0" encoding="UTF-8"?>
<svg id="Layer_3" data-name="Layer 3" xmlns="http://www.w3.org/2000/svg" version="1.1" xmlns:xlink="http://www.w3.org/1999/xlink" viewBox="0 0 1080 530">
  <defs>
    <linearGradient id="linear-gradient" x1="61.549" y1="559.106" x2="2689.026" y2="-672.494" gradientUnits="userSpaceOnUse">
      <stop offset="0" stop-color="#b615ff"/>
      <stop offset=".379" stop-color="#00edff"/>
    </linearGradient>
  </defs>
  <path d="M52.337,501.89c-8.019,0-12.337-4.318-12.337-12.338,0-292.012-4.559-283.876,8.636-291.795,59.555-29.779,119.382-30.318,175.815-20.357,14.414,3.601,11.106,7.188,11.106,82.048,0,24.876-37.135-2.611-81.433,16.039v214.065c0,8.02-4.317,12.338-12.338,12.338H52.337ZM400.274,171.231c93.154,0,140.655,48.735,140.655,148.673,0,170.624,4.348,169.944-10.489,173.966-40.32,10.929-91.299,16.656-129.548,16.656-104.257,0-151.758-39.482-151.758-109.191,0-122.493,177.669-88.285,177.669-91.918,0-23.443-7.404-40.715-43.184-40.715-63.629,0-76.405,28.132-86.368,9.87-32.37-68.263-35.231-69.75-28.376-74.645,28.993-17.272,75.879-32.695,131.398-32.695ZM426.803,419.842v-41.949c-24.959-5.348-61.691-6.373-61.691,19.123,0,27.682,34.456,27.776,61.691,22.825ZM655.057,142.853c-82.977,0-85.046-123.379,0-123.379,83.049,0,81.464,123.379,0,123.379ZM610.024,501.89c-8.019,0-12.338-4.318-12.338-12.338V192.206c0-8.02,4.32-12.338,12.338-12.338h89.452c8.019,0,12.338,4.318,12.338,12.338v297.346c0,8.02-4.32,12.338-12.338,12.338h-89.452ZM892.562,510.526c-43.801,0-90.824-14.279-130.783-40.715-6.709-4.438-7.532-10.559-3.702-17.274,35.536-62.303,37.562-70.929,51.202-62.306,45.995,29.078,115.361,33.285,115.361,9.252,0-8.019-11.117-13.473-32.695-16.656-85.191-12.566-125.232-49.351-125.232-106.107,0-117.848,157.731-126.64,254.78-77.73,7.392,3.726,8.636,9.871,4.32,17.274l-35.165,56.138c-12.002,18.87-22.109-11.105-83.28-11.105-17.275,0-27.143,2.469-27.143,13.573,0,9.87,5.552,13.572,43.184,19.123,76.493,12.338,116.593,48.118,116.593,103.64,0,74.645-46.883,112.892-147.438,112.892Z" fill="url(#linear-gradient)" stroke-width="0"/>
</svg>