<?xml version="1.0" encoding="UTF-8"?>
<svg id="Layer_3" data-name="Layer 3" xmlns="http://www.w3.org/2000/svg" version="1.1" xmlns:xlink="http://www.w3.org/1999/xlink" viewBox="0 0 1080 400">
  <defs>
    <linearGradient id="linear-gradient" x1="65.598" y1="309.088" x2="1252.417" y2="30.596" gradientUnits="userSpaceOnUse">
      <stop offset="0" stop-color="#b615ff"/>
      <stop offset="1" stop-color="#00edff"/>
    </linearGradient>
  </defs>
  <path d="M407.774,30.352c93.154,0,140.655,48.735,140.655,148.673v160.394c0,6.787-3.085,11.721-10.489,13.572-40.096,11.722-91.299,16.656-129.548,16.656-104.257,0-151.758-39.482-151.758-109.191,0-61.69,46.268-93.769,133.868-93.769,17.89,0,32.078,1.234,43.801,3.085v-1.234c0-23.443-7.404-40.715-43.184-40.715-23.441,0-53.672,6.169-69.71,14.188-6.787,3.702-12.956,2.469-16.658-4.318l-28.376-59.84c-4.32-6.785-4.32-11.721,0-14.805,28.993-17.272,75.879-32.695,131.398-32.695ZM407.774,281.43c8.636,0,19.742-1.234,26.529-2.467v-41.949c-8.639-1.851-17.893-3.085-27.143-3.085-22.827,0-34.548,8.019-34.548,22.208,0,16.039,12.338,25.292,35.162,25.292ZM892.562,369.648c-43.801,0-91.302-13.572-130.783-40.715-6.787-4.318-7.404-10.487-3.702-17.274l34.548-57.988c4.317-7.403,9.868-8.638,16.655-4.318,26.526,16.656,53.669,24.675,83.283,24.675,20.974,0,32.078-5.552,32.078-15.423,0-8.019-11.103-13.572-32.695-16.656-85.133-12.954-125.232-49.351-125.232-106.107,0-66.625,48.118-105.489,141.272-105.489,38.247,0,74.644,8.019,113.508,27.759,7.404,3.702,8.636,9.871,4.32,17.274l-35.165,56.138c-4.317,6.787-9.868,8.02-16.655,4.318-19.742-9.87-43.801-15.423-66.625-15.423-17.275,0-27.143,2.469-27.143,13.573,0,9.87,5.552,13.572,43.184,19.123,76.493,12.338,116.593,48.118,116.593,103.64,0,74.645-46.883,112.892-147.438,112.892ZM52.337,361.011c-8.019,0-12.337-4.318-12.337-12.338V71.685c0-6.787,2.467-11.105,8.636-14.807,35.778-17.89,75.877-26.526,119.061-26.526,17.272,0,35.78,2.467,56.754,6.169,7.404,1.85,11.106,6.169,11.106,13.572v68.476c0,8.019-4.937,12.338-12.956,11.103-9.254-1.234-19.125-1.85-28.379-1.85-15.423,0-28.376,1.85-40.099,6.785v214.065c0,8.02-4.317,12.338-12.338,12.338H52.337ZM635.857,113.968c13.78-9.519,17.579-33.57,36.555-33.533,9.498.085,20.326,6.779,28.02,4.734,10.17-3.054,10.035-17.995,8.983-26.895-.921-26.176-30.126-25.989-51.679-26.893-15.509-.195-31.951-.337-46.896,4.698-8.877,3.075-14.46,8.314-15.944,17.086-2.35,14.295-2.311,34.182-1.609,48.619-.991,32.112,22.789,27.034,42.57,12.184ZM664.282,96.7c-2.557,2.07-4.77,4.727-6.831,7.312-6.857,8.952-13.506,18.041-23.613,25.05-4.382,3.176-9.262,6.127-13.998,8.457-9.026,4.778-18.728,6.498-22.391,16.443-1.295,3.221-2.007,8.225-2.012,11.251-.048,19.568.019,160.048-.007,180.91.02,3.619.169,6.017,3.05,9.901,2.253,2.843,5.585,4.746,9.159,5.14,11.383.45,22.367.094,34.927.2,19.273,0,41.261,0,49.853,0,3.259.038,6.513-.034,9.516-1.57,4.74-2.39,7.931-7.728,7.635-12.945-.003-62.38.003-167.124,0-227.505.146-4.36-1.278-9.247-3.852-13.065-3.792-5.682-11.097-8.035-18.512-10.442-7.4-2.344-16.234-4.912-22.776.744l-.147.117Z" fill="url(#linear-gradient)" stroke-width="0"/>
</svg>