<?xml version="1.0" encoding="UTF-8"?>
<svg id="Layer_3" data-name="Layer 3" xmlns="http://www.w3.org/2000/svg" version="1.1" xmlns:xlink="http://www.w3.org/1999/xlink" viewBox="0 0 1080 650">
  <defs>
    <linearGradient id="linear-gradient" x1="61.549" y1="567.827" x2="2689.026" y2="-663.773" gradientUnits="userSpaceOnUse">
      <stop offset="0" stop-color="#b615ff"/>
      <stop offset=".379" stop-color="#00edff"/>
    </linearGradient>
    <linearGradient id="linear-gradient-2" x1="98.675" y1="467.885" x2="1026.246" y2="771.921" gradientTransform="translate(0 -35.979)" gradientUnits="userSpaceOnUse">
      <stop offset="0" stop-color="#b615ff"/>
      <stop offset="1" stop-color="#00edff"/>
    </linearGradient>
  </defs>
  <path d="M52.337,510.611c-8.019,0-12.337-4.318-12.337-12.338,0-292.012-4.559-283.876,8.636-291.795,59.555-29.779,119.382-30.318,175.815-20.357,14.414,3.601,11.106,7.188,11.106,82.048,0,24.876-37.135-2.611-81.433,16.039v214.065c0,8.02-4.317,12.338-12.338,12.338H52.337ZM400.274,179.952c93.154,0,140.655,48.735,140.655,148.673,0,170.624,4.348,169.944-10.489,173.966-40.32,10.929-91.299,16.656-129.548,16.656-104.257,0-151.758-39.482-151.758-109.191,0-122.493,177.669-88.285,177.669-91.918,0-23.443-7.404-40.715-43.184-40.715-63.629,0-76.405,28.132-86.368,9.87-32.37-68.263-35.231-69.75-28.376-74.645,28.993-17.272,75.879-32.695,131.398-32.695ZM426.803,428.563v-41.949c-24.959-5.348-61.691-6.373-61.691,19.123,0,27.682,34.456,27.776,61.691,22.825ZM655.057,151.574c-82.977,0-85.046-123.379,0-123.379,83.049,0,81.464,123.379,0,123.379ZM610.024,510.611c-8.019,0-12.338-4.318-12.338-12.338V200.926c0-8.02,4.32-12.338,12.338-12.338h89.452c8.019,0,12.338,4.318,12.338,12.338v297.346c0,8.02-4.32,12.338-12.338,12.338h-89.452ZM892.562,519.247c-43.801,0-90.824-14.279-130.783-40.715-6.709-4.438-7.532-10.559-3.702-17.274,35.536-62.303,37.562-70.929,51.202-62.306,45.995,29.078,115.361,33.285,115.361,9.252,0-8.019-11.117-13.473-32.695-16.656-85.191-12.566-125.232-49.351-125.232-106.107,0-117.848,157.731-126.64,254.78-77.73,7.392,3.726,8.636,9.871,4.32,17.274l-35.165,56.138c-12.002,18.87-22.109-11.105-83.28-11.105-17.275,0-27.143,2.469-27.143,13.573,0,9.87,5.552,13.572,43.184,19.123,76.493,12.338,116.593,48.118,116.593,103.64,0,74.645-46.883,112.892-147.438,112.892Z" fill="url(#linear-gradient)" stroke-width="0"/>
  <path d="M1040,621.806l-1000-.091v-90.396l1000,.091v90.396ZM95.114,600.017v-14.297l12.914-27.695-11.184.059-7.149,17.477-6.803-17.429-11.761.009,12.914,27.649v14.297l11.069-.069ZM147.114,579.085c0-13.029-7.033-21.946-19.832-22.028-12.798.033-19.947,8.978-19.947,22.007,0,12.914,7.149,21.841,19.947,21.923,12.798-.033,19.832-8.873,19.832-21.902ZM127.167,591.407c-5.65-.033-8.417-4.195-8.417-12.382,0-8.417,2.767-12.556,8.417-12.638,5.534.023,8.417,4.195,8.417,12.612,0,8.302-2.767,12.441-8.417,12.408ZM171.904,600.855c2.652.001,5.073-.363,7.379-1.084,7.264-2.478,11.415-8.571,11.415-18.487v-23.406l-11.069-.046v23.982c0,6.342-2.537,9.463-7.725,9.471-5.073.017-7.725-3.212-7.725-9.439v-23.982l-10.954-.036v23.406c0,6.572,1.73,11.451,5.189,14.751,3.459,3.3,7.956,4.962,13.49,4.87ZM216.294,557.927l-17.526-.034v41.969l10.838.026v-13.836l5.765.043,5.534,13.859,12.568-.053-7.149-15.96c4.266-2.163,6.457-6.238,6.457-12.118,0-10.262-5.996-13.899-16.488-13.895ZM209.607,567.143l7.61-.026c2.883.022,4.381,1.536,4.381,4.765s-1.499,4.827-4.381,4.805l-7.61.026v-9.57ZM269.217,557.945l-17.641-.044v41.969l10.954.036v-13.144l5.765.043c11.184-.059,16.834-4.869,16.834-14.439,0-9.8-5.88-14.35-15.911-14.421ZM273.599,572.28c0,3.69-1.384,5.183-4.958,5.216l-6.111.042v-10.262l5.996-.052c3.69-.023,5.073,1.366,5.073,5.056ZM324.215,558.03l-31.823-.017v41.969l32.284.057v-9.224l-21.215-.011v-7.379l19.37-.035v-9.339l-19.37.035v-6.687l20.869-.019v-9.339l-.115-.01ZM350.619,557.918l-17.526-.034v41.969l10.838.026v-13.836l5.765.043,5.534,13.859,12.568-.053-7.149-15.96c4.266-2.163,6.457-6.238,6.457-12.118,0-10.262-5.996-13.784-16.488-13.895ZM343.932,567.249l7.61-.026c2.883.022,4.381,1.536,4.381,4.765s-1.499,4.827-4.381,4.805l-7.61.026v-9.57ZM404.464,587.534c0-10.262-8.302-11.91-16.373-14.115-1.96-.517-5.189-1.146-5.189-3.682,0-2.191,1.845-3.298,5.534-3.321,3.92-.003,8.071.937,12.222,2.914l3.459-8.23c-4.497-2.699-9.685-4.076-15.566-4.129-4.958.027-8.993,1.058-12.222,3.312-3.228,2.254-4.843,5.572-4.843,10.184,0,8.417,5.88,11.468,12.683,13.101,2.883.829,8.878.892,8.878,4.812,0,2.075-1.96,3.057-5.88,3.06-4.612-.058-10.031-1.8-12.683-3.646l-3.69,8.094c3.69,2.859,10.262,4.933,16.719,4.922,9.57.146,16.949-3.936,16.949-13.275ZM449.316,579.006c0-13.029-7.033-21.946-19.832-22.028s-19.947,8.978-19.947,22.007c0,12.914,7.149,21.841,19.947,21.923,12.798-.033,19.832-8.873,19.832-21.902ZM429.369,591.442c-5.65-.033-8.417-4.195-8.417-12.382,0-8.417,2.767-12.556,8.417-12.638,5.534.023,8.417,4.195,8.417,12.612,0,8.302-2.767,12.441-8.417,12.408ZM482.638,557.939v25.481l-15.681-25.47-10.954-.036v41.969l10.492-.004v-25.597l15.911,25.605,10.723.016v-41.969l-10.492.005ZM527.259,600.007l12.107.021-14.297-41.952-12.452-.052-14.297,41.987,11.645-.019,2.421-8.09,12.337.042,2.537,8.062ZM514.346,583.081l4.381-14.375,4.266,14.44-8.647-.065ZM555.739,590.738v-32.745l-10.954-.036v41.969l30.093-.019v-9.224l-19.14.055ZM618.462,599.915l12.107.021-14.297-41.952-12.452-.052-14.297,41.987,11.645-.019,2.421-8.09,12.337.042,2.537,8.062ZM605.548,583.104l4.381-14.375,4.266,14.44-8.648-.065ZM635.988,599.949l10.954.036v-41.969l-10.954-.036v41.969ZM692.485,599.934l12.107.021-14.297-41.952-12.452-.052-14.297,41.987,11.645-.019,2.421-8.09,12.337.042,2.537,8.062ZM679.571,583.124l4.381-14.375,4.266,14.44-8.648-.065ZM741.257,587.598c0-10.262-8.302-11.91-16.373-14.115-1.96-.517-5.189-1.146-5.189-3.682,0-2.191,1.845-3.298,5.534-3.321,3.92-.003,8.071.937,12.222,2.914l3.459-8.23c-4.497-2.699-9.685-4.076-15.566-4.129-4.958.027-8.993,1.058-12.222,3.312s-4.843,5.572-4.843,10.184c0,8.417,5.88,11.468,12.683,13.101,2.883.829,8.878.892,8.878,4.812,0,2.075-1.96,3.057-5.88,3.06-4.612-.058-10.031-1.8-12.683-3.646l-3.69,8.094c3.69,2.859,10.262,4.933,16.719,4.922,9.57.03,16.949-4.051,16.949-13.276ZM779.421,587.593c0-10.262-8.302-11.91-16.373-14.115-1.96-.517-5.189-1.146-5.189-3.682,0-2.191,1.845-3.298,5.534-3.321,3.92-.003,8.071.937,12.222,2.914l3.459-8.23c-4.497-2.699-9.685-4.076-15.566-4.129-4.958.027-8.993,1.058-12.222,3.312s-4.843,5.572-4.843,10.184c0,8.417,5.88,11.468,12.683,13.101,2.883.829,8.878.892,8.878,4.812,0,2.075-1.96,3.057-5.88,3.06-4.612-.058-10.031-1.8-12.683-3.646l-3.69,8.094c3.69,2.859,10.262,4.933,16.719,4.922,9.455.02,16.949-4.051,16.949-13.276ZM786.224,599.949l10.954.036v-41.969l-10.954-.036v41.969ZM837.302,587.584c0-10.262-8.302-11.91-16.373-14.115-1.96-.517-5.189-1.146-5.189-3.682,0-2.191,1.845-3.298,5.534-3.321,3.92-.003,8.071.937,12.222,2.914l3.459-8.23c-4.497-2.699-9.685-4.076-15.566-4.129-4.958.027-8.993,1.058-12.222,3.312s-4.843,5.572-4.843,10.184c0,8.417,5.88,11.468,12.683,13.101,2.883.829,8.878.892,8.878,4.812,0,2.075-1.96,3.057-5.88,3.06-4.612-.058-10.031-1.8-12.683-3.646l-3.69,8.094c3.69,2.859,10.262,4.933,16.719,4.922,9.57.03,16.949-4.051,16.949-13.276ZM875.928,557.987l-34.936.057v9.224l11.991.011v32.745l10.954.036v-32.745l11.991.011v-9.339h0ZM903.254,599.926l12.107.021-14.297-41.952-12.452-.052-14.297,41.987,11.645-.019,2.421-8.09,12.337.042,2.537,8.062ZM890.34,583.115l4.381-14.375,4.266,14.44-8.648-.065ZM947.414,558.015v25.481l-15.681-25.47-10.954-.036v41.969l10.492-.004v-25.597l15.911,25.605,10.723.016v-41.969l-10.492.005ZM998.377,557.977l-34.936.057v9.224l11.991.011v32.745l10.954.036v-32.745l11.991.011v-9.339h0Z" fill="url(#linear-gradient-2)" stroke-width="0"/>
</svg>